<svg width="18" height="13" viewBox="0 0 18 13" fill="none" xmlns="http://www.w3.org/2000/svg">
<path d="M14.25 10.5021H4.50001C2.84251 10.5021 1.50001 9.15958 1.50001 7.50208C1.50001 5.84458 2.84251 4.50208 4.50001 4.50208H5.03251C5.52751 2.76958 7.12501 1.50208 9.00001 1.50208C11.28 1.50208 13.125 3.34708 13.125 5.62708V6.00208H14.25C15.495 6.00208 16.5 7.00708 16.5 8.25208C16.5 9.49708 15.495 10.5021 14.25 10.5021ZM14.5125 4.52458C14.2591 3.24924 13.571 2.10133 12.5658 1.27661C11.5605 0.451891 10.3003 0.00143803 9.00001 0.00207587C6.83251 0.00207587 4.95001 1.23208 4.01251 3.02458C2.87089 3.15355 1.82173 3.71401 1.07982 4.59123C0.337904 5.46845 -0.0406513 6.59608 0.0216444 7.74328C0.0839401 8.89048 0.582375 9.97048 1.41492 10.7622C2.24746 11.5539 3.35113 11.9975 4.50001 12.0021H14.25C16.32 12.0021 18 10.3221 18 8.25208C18 6.27208 16.4625 4.66708 14.5125 4.52458ZM7.50001 9.75208L4.87501 7.12708L5.93251 6.06208L7.50001 7.62958L10.9425 4.19458L12 5.25208" fill="#4F4F4F"/>
</svg>
