<svg width="18" height="15" viewBox="0 0 18 15" fill="none" xmlns="http://www.w3.org/2000/svg">
<path d="M14.25 6.00205V7.12705C15.9075 7.12705 17.25 8.46955 17.25 10.127C17.25 10.742 17.0625 11.312 16.7475 11.7845L15.93 10.967C16.0575 10.712 16.125 10.427 16.125 10.127C16.125 9.62977 15.9275 9.15285 15.5758 8.80122C15.2242 8.44959 14.7473 8.25205 14.25 8.25205V9.37705L12.5625 7.68955L12.54 7.66705C12.585 7.62955 12.6375 7.59955 14.25 6.00205ZM14.25 14.252V13.127C12.5925 13.127 11.25 11.7845 11.25 10.127C11.25 9.51205 11.4375 8.94205 11.7525 8.46955L12.57 9.28705C12.4425 9.54205 12.375 9.82705 12.375 10.127C12.375 10.6243 12.5726 11.1012 12.9242 11.4529C13.2758 11.8045 13.7527 12.002 14.25 12.002V10.877L15.9375 12.5645L15.96 12.587C15.915 12.6245 15.8625 12.6545 14.25 14.252ZM9.77251 10.502H4.50001C2.84251 10.502 1.50001 9.15955 1.50001 7.50205C1.50001 5.84455 2.84251 4.50205 4.50001 4.50205H5.03251C5.52751 2.76955 7.12501 1.50205 9.00001 1.50205C11.25 1.50205 13.05 3.27955 13.125 5.49205C13.59 5.33455 14.1 5.25205 14.625 5.25205C15.585 5.25205 16.4775 5.53705 17.25 6.00205C16.5975 5.17705 15.63 4.60705 14.5125 4.52455C14.2591 3.24921 13.571 2.1013 12.5658 1.27658C11.5605 0.451861 10.3003 0.00140751 9.00001 0.00204535C6.83251 0.00204535 4.95001 1.23205 4.01251 3.02455C2.87089 3.15352 1.82173 3.71398 1.07982 4.5912C0.337904 5.46842 -0.0406513 6.59605 0.0216444 7.74325C0.0839401 8.89045 0.582375 9.97045 1.41492 10.7622C2.24746 11.5539 3.35113 11.9975 4.50001 12.002H10.125C9.93001 11.537 9.81001 11.027 9.77251 10.502Z" fill="black"/>
</svg>
