<svg width="18" height="14" viewBox="0 0 18 14" fill="none" xmlns="http://www.w3.org/2000/svg">
<path d="M5.7975 4.50205L11.7975 10.5021H4.5C3.70435 10.5021 2.94129 10.186 2.37868 9.62337C1.81607 9.06076 1.5 8.2977 1.5 7.50205C1.5 6.7064 1.81607 5.94334 2.37868 5.38073C2.94129 4.81812 3.70435 4.50205 4.5 4.50205H5.7975ZM2.25 0.954553L4.3125 3.00205C1.92 3.11455 0 5.07955 0 7.50205C0 8.69553 0.474106 9.84012 1.31802 10.684C2.16193 11.5279 3.30653 12.0021 4.5 12.0021H13.2975L14.7975 13.5021L15.75 12.5496L3.2025 0.00205298L2.25 0.954553ZM14.5125 4.52455C14.259 3.24922 13.571 2.10131 12.5658 1.27659C11.5605 0.451868 10.3003 0.00141514 9 0.00205298C7.875 0.00205298 6.8625 0.324553 6 0.879553L7.0875 1.97455C7.6575 1.67455 8.31 1.50205 9 1.50205C10.094 1.50205 11.1432 1.93665 11.9168 2.71024C12.6904 3.48383 13.125 4.53304 13.125 5.62705V6.00205H14.25C14.8467 6.00205 15.419 6.23911 15.841 6.66106C16.2629 7.08302 16.5 7.65532 16.5 8.25205C16.5 9.09955 16.02 9.83455 15.33 10.2171L16.4175 11.3046C17.37 10.6221 18 9.51205 18 8.25205C18 6.27205 16.4625 4.66705 14.5125 4.52455Z" fill="black"/>
</svg>
