<svg width="14" height="17" viewBox="0 0 14 17" fill="none" xmlns="http://www.w3.org/2000/svg">
<path fill-rule="evenodd" clip-rule="evenodd" d="M2.04999 2.04999C3.36281 0.73717 5.14338 -0.000366211 6.99999 -0.000366211C8.8566 -0.000366211 10.6372 0.73717 11.95 2.04999C13.2628 3.36281 14.0003 5.14338 14.0003 6.99999C14.0003 8.8566 13.2628 10.6372 11.95 11.95L6.99999 16.9L2.04999 11.95C1.3999 11.3 0.88422 10.5283 0.532393 9.67894C0.180565 8.82961 -0.000518799 7.9193 -0.000518799 6.99999C-0.000518799 6.08068 0.180565 5.17037 0.532393 4.32104C0.88422 3.47172 1.3999 2.70001 2.04999 2.04999ZM6.99999 8.99999C7.53042 8.99999 8.03913 8.78928 8.4142 8.4142C8.78927 8.03913 8.99999 7.53042 8.99999 6.99999C8.99999 6.46956 8.78927 5.96085 8.4142 5.58578C8.03913 5.2107 7.53042 4.99999 6.99999 4.99999C6.46955 4.99999 5.96085 5.2107 5.58577 5.58578C5.2107 5.96085 4.99999 6.46956 4.99999 6.99999C4.99999 7.53042 5.2107 8.03913 5.58577 8.4142C5.96085 8.78928 6.46955 8.99999 6.99999 8.99999Z" fill="#6A737D"/>
</svg>
