<svg width="18" height="10" viewBox="0 0 18 10" fill="none" xmlns="http://www.w3.org/2000/svg">
<path d="M2.33334 9.16671V2.50004H0.666672V0.833374H4.00001V9.16671H2.33334ZM17.3333 7.50004C17.3333 7.94207 17.1577 8.36599 16.8452 8.67855C16.5326 8.99111 16.1087 9.16671 15.6667 9.16671H12.3333V7.50004H15.6667V5.83337H14V4.16671H15.6667V2.50004H12.3333V0.833374H15.6667C16.1087 0.833374 16.5326 1.00897 16.8452 1.32153C17.1577 1.63409 17.3333 2.05801 17.3333 2.50004V3.75004C17.3333 4.08156 17.2016 4.3995 16.9672 4.63392C16.7328 4.86834 16.4149 5.00004 16.0833 5.00004C16.4149 5.00004 16.7328 5.13174 16.9672 5.36616C17.2016 5.60058 17.3333 5.91852 17.3333 6.25004V7.50004ZM10.6667 7.50004V9.16671H5.66667V5.83337C5.66667 5.39135 5.84227 4.96742 6.15483 4.65486C6.46739 4.3423 6.89131 4.16671 7.33334 4.16671H9.00001V2.50004H5.66667V0.833374H9.00001C9.44203 0.833374 9.86596 1.00897 10.1785 1.32153C10.4911 1.63409 10.6667 2.05801 10.6667 2.50004V4.16671C10.6667 4.60873 10.4911 5.03266 10.1785 5.34522C9.86596 5.65778 9.44203 5.83337 9.00001 5.83337H7.33334V7.50004H10.6667Z" fill="#6A737D"/>
</svg>
