<svg width="20" height="20" viewBox="0 0 20 20" fill="none" xmlns="http://www.w3.org/2000/svg">
<path d="M16.6667 1.66663H6.66667C5.7475 1.66663 5 2.41413 5 3.33329V13.3333C5 14.2525 5.7475 15 6.66667 15H16.6667C17.5858 15 18.3333 14.2525 18.3333 13.3333V3.33329C18.3333 2.41413 17.5858 1.66663 16.6667 1.66663ZM6.66667 13.3333V3.33329H16.6667L16.6683 13.3333H6.66667Z" fill="#6A737D"/>
<path d="M3.33335 6.66669H1.66669V16.6667C1.66669 17.5859 2.41419 18.3334 3.33335 18.3334H13.3334V16.6667H3.33335V6.66669ZM10.7775 9.59919L9.33919 8.16086L8.16085 9.33919L10.8892 12.0675L15.6409 6.36753L14.3592 5.29919L10.7775 9.59919Z" fill="#6A737D"/>
</svg>
