<svg width="18" height="20" viewBox="0 0 18 20" fill="none" xmlns="http://www.w3.org/2000/svg">
<path d="M15.6667 2.50004H14.8333V1.66671C14.8333 1.20837 14.4583 0.833374 14 0.833374C13.5417 0.833374 13.1667 1.20837 13.1667 1.66671V2.50004H4.83333V1.66671C4.83333 1.20837 4.45833 0.833374 4 0.833374C3.54166 0.833374 3.16666 1.20837 3.16666 1.66671V2.50004H2.33333C1.41666 2.50004 0.666664 3.25004 0.666664 4.16671V17.5C0.666664 18.4167 1.41666 19.1667 2.33333 19.1667H15.6667C16.5833 19.1667 17.3333 18.4167 17.3333 17.5V4.16671C17.3333 3.25004 16.5833 2.50004 15.6667 2.50004ZM14.8333 17.5H3.16666C2.70833 17.5 2.33333 17.125 2.33333 16.6667V6.66671H15.6667V16.6667C15.6667 17.125 15.2917 17.5 14.8333 17.5Z" fill="#586069"/>
</svg>
