<svg width="18" height="18" viewBox="0 0 18 18" fill="none" xmlns="http://www.w3.org/2000/svg">
<path d="M5.52501 15.6667C5.38414 16.0649 5.14469 16.421 4.829 16.7017C4.51331 16.9823 4.13167 17.1785 3.71968 17.2718C3.30769 17.3651 2.87879 17.3525 2.47298 17.2352C2.06717 17.1179 1.69768 16.8997 1.39898 16.601C1.10029 16.3023 0.882118 15.9329 0.764832 15.527C0.647547 15.1212 0.634966 14.6923 0.728263 14.2803C0.821559 13.8684 1.01769 13.4867 1.29837 13.171C1.57904 12.8553 1.93511 12.6159 2.33334 12.475V5.52501C1.93511 5.38414 1.57904 5.14469 1.29837 4.829C1.01769 4.51331 0.821559 4.13167 0.728263 3.71968C0.634966 3.30769 0.647547 2.87879 0.764832 2.47298C0.882118 2.06717 1.10029 1.69768 1.39898 1.39898C1.69768 1.10029 2.06717 0.882118 2.47298 0.764832C2.87879 0.647547 3.30769 0.634966 3.71968 0.728263C4.13167 0.821559 4.51331 1.01769 4.829 1.29837C5.14469 1.57904 5.38414 1.93511 5.52501 2.33334H12.475C12.6159 1.93511 12.8553 1.57904 13.171 1.29837C13.4867 1.01769 13.8684 0.821559 14.2803 0.728263C14.6923 0.634966 15.1212 0.647547 15.527 0.764832C15.9329 0.882118 16.3023 1.10029 16.601 1.39898C16.8997 1.69768 17.1179 2.06717 17.2352 2.47298C17.3525 2.87879 17.3651 3.30769 17.2718 3.71968C17.1785 4.13167 16.9823 4.51331 16.7017 4.829C16.421 5.14469 16.0649 5.38414 15.6667 5.52501V12.475C16.0649 12.6159 16.421 12.8553 16.7017 13.171C16.9823 13.4867 17.1785 13.8684 17.2718 14.2803C17.3651 14.6923 17.3525 15.1212 17.2352 15.527C17.1179 15.9329 16.8997 16.3023 16.601 16.601C16.3023 16.8997 15.9329 17.1179 15.527 17.2352C15.1212 17.3525 14.6923 17.3651 14.2803 17.2718C13.8684 17.1785 13.4867 16.9823 13.171 16.7017C12.8553 16.421 12.6159 16.0649 12.475 15.6667H5.52501ZM5.52501 14H12.475C12.5997 13.6483 12.8013 13.3289 13.0651 13.0651C13.3289 12.8013 13.6483 12.5997 14 12.475V5.52501C13.6483 5.40034 13.3289 5.19873 13.0651 4.9349C12.8013 4.67107 12.5997 4.35167 12.475 4.00001H5.52501C5.40034 4.35167 5.19873 4.67107 4.9349 4.9349C4.67107 5.19873 4.35168 5.40034 4.00001 5.52501V12.475C4.35168 12.5997 4.67107 12.8013 4.9349 13.0651C5.19873 13.3289 5.40034 13.6483 5.52501 14ZM3.16668 4.00001C3.38769 4.00001 3.59965 3.91221 3.75593 3.75593C3.91221 3.59965 4.00001 3.38769 4.00001 3.16668C4.00001 2.94566 3.91221 2.7337 3.75593 2.57742C3.59965 2.42114 3.38769 2.33334 3.16668 2.33334C2.94566 2.33334 2.7337 2.42114 2.57742 2.57742C2.42114 2.7337 2.33334 2.94566 2.33334 3.16668C2.33334 3.38769 2.42114 3.59965 2.57742 3.75593C2.7337 3.91221 2.94566 4.00001 3.16668 4.00001ZM14.8333 4.00001C15.0544 4.00001 15.2663 3.91221 15.4226 3.75593C15.5789 3.59965 15.6667 3.38769 15.6667 3.16668C15.6667 2.94566 15.5789 2.7337 15.4226 2.57742C15.2663 2.42114 15.0544 2.33334 14.8333 2.33334C14.6123 2.33334 14.4004 2.42114 14.2441 2.57742C14.0878 2.7337 14 2.94566 14 3.16668C14 3.38769 14.0878 3.59965 14.2441 3.75593C14.4004 3.91221 14.6123 4.00001 14.8333 4.00001ZM14.8333 15.6667C15.0544 15.6667 15.2663 15.5789 15.4226 15.4226C15.5789 15.2663 15.6667 15.0544 15.6667 14.8333C15.6667 14.6123 15.5789 14.4004 15.4226 14.2441C15.2663 14.0878 15.0544 14 14.8333 14C14.6123 14 14.4004 14.0878 14.2441 14.2441C14.0878 14.4004 14 14.6123 14 14.8333C14 15.0544 14.0878 15.2663 14.2441 15.4226C14.4004 15.5789 14.6123 15.6667 14.8333 15.6667ZM3.16668 15.6667C3.38769 15.6667 3.59965 15.5789 3.75593 15.4226C3.91221 15.2663 4.00001 15.0544 4.00001 14.8333C4.00001 14.6123 3.91221 14.4004 3.75593 14.2441C3.59965 14.0878 3.38769 14 3.16668 14C2.94566 14 2.7337 14.0878 2.57742 14.2441C2.42114 14.4004 2.33334 14.6123 2.33334 14.8333C2.33334 15.0544 2.42114 15.2663 2.57742 15.4226C2.7337 15.5789 2.94566 15.6667 3.16668 15.6667Z" fill="#586069"/>
</svg>
